<mxfile host="65bd71144e">
    <diagram id="reHPLL9KE3v4LOGnOyF_" name="Page-1">
        <mxGraphModel dx="534" dy="1296" grid="1" gridSize="10" guides="1" tooltips="1" connect="1" arrows="1" fold="1" page="1" pageScale="1" pageWidth="850" pageHeight="1100" math="0" shadow="0">
            <root>
                <mxCell id="0"/>
                <mxCell id="1" parent="0"/>
                <mxCell id="3" value="HTTPClient (RoundTripper)" style="rounded=0;whiteSpace=wrap;html=1;horizontal=1;verticalAlign=top;fillColor=#f5f5f5;fontColor=#333333;strokeColor=#666666;" parent="1" vertex="1">
                    <mxGeometry x="140" y="200" width="480" height="220" as="geometry"/>
                </mxCell>
                <mxCell id="2" value="HTTP 1/2/3&lt;br&gt;Transport&lt;br&gt;&lt;br&gt;(RoundTripper)" style="rounded=1;whiteSpace=wrap;html=1;fillColor=#f8cecc;strokeColor=#b85450;" parent="1" vertex="1">
                    <mxGeometry x="510" y="240" width="90" height="160" as="geometry"/>
                </mxCell>
                <mxCell id="5" value="Retry&lt;br style=&quot;border-color: var(--border-color);&quot;&gt;Tripperware&lt;br style=&quot;border-color: var(--border-color);&quot;&gt;&lt;br style=&quot;border-color: var(--border-color);&quot;&gt;(Optional)" style="rounded=1;whiteSpace=wrap;html=1;fillColor=#fff2cc;strokeColor=#d6b656;" parent="1" vertex="1">
                    <mxGeometry x="410" y="240" width="80" height="160" as="geometry"/>
                </mxCell>
                <mxCell id="6" value="Tripperware" style="rounded=1;whiteSpace=wrap;html=1;fillColor=#fff2cc;strokeColor=#d6b656;" parent="1" vertex="1">
                    <mxGeometry x="260" y="240" width="80" height="160" as="geometry"/>
                </mxCell>
                <mxCell id="7" value="Tripperware" style="rounded=1;whiteSpace=wrap;html=1;fillColor=#fff2cc;strokeColor=#d6b656;" parent="1" vertex="1">
                    <mxGeometry x="160" y="240" width="80" height="160" as="geometry"/>
                </mxCell>
                <mxCell id="9" value="" style="ellipse;whiteSpace=wrap;html=1;aspect=fixed;fillColor=#d8b85b;strokeColor=none;" parent="1" vertex="1">
                    <mxGeometry x="350" y="320" width="10" height="10" as="geometry"/>
                </mxCell>
                <mxCell id="10" value="" style="ellipse;whiteSpace=wrap;html=1;aspect=fixed;fillColor=#d8b85b;strokeColor=none;" parent="1" vertex="1">
                    <mxGeometry x="370" y="320" width="10" height="10" as="geometry"/>
                </mxCell>
                <mxCell id="11" value="" style="ellipse;whiteSpace=wrap;html=1;aspect=fixed;fillColor=#d8b85b;strokeColor=none;" parent="1" vertex="1">
                    <mxGeometry x="390" y="320" width="10" height="10" as="geometry"/>
                </mxCell>
            </root>
        </mxGraphModel>
    </diagram>
</mxfile>